{
  "accessors": [
    {
      "bufferView": 2,
      "componentType": 5126,
      "count": 5616,
      "max": [
        250.54463195800781,
        402.16455078125,
        61.330268859863281
      ],
      "min": [
        -252.56770324707031,
        -1113.4793701171875,
        -62.078315734863281
      ],
      "type": "VEC3"
    },
    {
      "bufferView": 2,
      "byteOffset": 67392,
      "componentType": 5126,
      "count": 5616,
      "max": [
        1,
        1,
        1
      ],
      "min": [
        -1,
        -1,
        -1
      ],
      "type": "VEC3"
    },
    {
      "bufferView": 1,
      "componentType": 5126,
      "count": 5616,
      "max": [
        1.9944897890090942,
        1.0000288486480713
      ],
      "min": [
        -0.00055232108570635319,
        0.00056848395615816116
      ],
      "type": "VEC2"
    },
    {
      "bufferView": 1,
      "byteOffset": 44928,
      "componentType": 5126,
      "count": 5616,
      "max": [
        1.9944897890090942,
        1.0000288486480713
      ],
      "min": [
        -0.00055232108570635319,
        0.00056848395615816116
      ],
      "type": "VEC2"
    },
    {
      "bufferView": 0,
      "componentType": 5125,
      "count": 13368,
      "max": [
        5615
      ],
      "min": [
        0
      ],
      "type": "SCALAR"
    }
  ],
  "asset": {
    "extras": {
      "author": "alexm00 (https://sketchfab.com/alexm00)",
      "license": "CC-BY-4.0 (http://creativecommons.org/licenses/by/4.0/)",
      "source": "https://sketchfab.com/3d-models/crows-bane-wow-inspired-weapon-f3c600711df442ad9e69df5925074231",
      "title": "Crow's Bane - WoW Inspired Weapon"
    },
    "generator": "Sketchfab-8.25.0",
    "version": "2.0"
  },
  "bufferViews": [
    {
      "buffer": 0,
      "byteLength": 53472,
      "byteOffset": 0,
      "name": "floatBufferViews",
      "target": 34963
    },
    {
      "buffer": 0,
      "byteLength": 89856,
      "byteOffset": 53472,
      "byteStride": 8,
      "name": "floatBufferViews",
      "target": 34962
    },
    {
      "buffer": 0,
      "byteLength": 134784,
      "byteOffset": 143328,
      "byteStride": 12,
      "name": "floatBufferViews",
      "target": 34962
    }
  ],
  "buffers": [
    {
      "byteLength": 278112,
      "uri": "scene.bin"
    }
  ],
  "images": [
    {
      "uri": "textures/T_sword_baseColor.jpeg"
    },
    {
      "uri": "textures/T_sword_emissive.jpeg"
    }
  ],
  "materials": [
    {
      "doubleSided": true,
      "emissiveFactor": [
        1,
        1,
        1
      ],
      "emissiveTexture": {
        "index": 1,
        "texCoord": 0
      },
      "name": "T_sword",
      "pbrMetallicRoughness": {
        "baseColorFactor": [
          1,
          1,
          1,
          1
        ],
        "baseColorTexture": {
          "index": 0,
          "texCoord": 0
        },
        "metallicFactor": 0.44073932929999998,
        "roughnessFactor": 0.89297135959999996
      }
    }
  ],
  "meshes": [
    {
      "name": "sword_T_sword_0",
      "primitives": [
        {
          "attributes": {
            "NORMAL": 1,
            "POSITION": 0,
            "TEXCOORD_0": 2,
            "TEXCOORD_1": 3
          },
          "indices": 4,
          "material": 0,
          "mode": 4
        }
      ]
    }
  ],
  "nodes": [
    {
      "children": [
        1
      ],
      "name": "RootNode (gltf orientation matrix)",
      "rotation": [
        -0.70710678118654746,
        -0,
        -0,
        0.70710678118654757
      ]
    },
    {
      "children": [
        2
      ],
      "name": "RootNode (model correction matrix)"
    },
    {
      "children": [
        3
      ],
      "matrix": [
        1,
        0,
        0,
        0,
        0,
        0,
        1,
        0,
        0,
        -1,
        0,
        0,
        0,
        0,
        0,
        1
      ],
      "name": "6c762e6ac92f49e1844a40edd055b17b.fbx"
    },
    {
      "children": [
        4
      ],
      "name": "RootNode"
    },
    {
      "children": [
        5
      ],
      "matrix": [
        0.9563106391844457,
        -0.12278580704556136,
        -7.5184642743681474e-18,
        0,
        0.15528130826205327,
        1.209400098680617,
        5.3298516245329373e-08,
        0,
        -7.8361933293360219e-09,
        -6.1031769407626383e-08,
        1.4077060222625719,
        0,
        0,
        550.1953125,
        0,
        1
      ],
      "name": "sword"
    },
    {
      "mesh": 0,
      "name": "sword_T_sword_0"
    }
  ],
  "samplers": [
    {
      "magFilter": 9729,
      "minFilter": 9987,
      "wrapS": 10497,
      "wrapT": 10497
    }
  ],
  "scene": 0,
  "scenes": [
    {
      "name": "OSG_Scene",
      "nodes": [
        0
      ]
    }
  ],
  "textures": [
    {
      "sampler": 0,
      "source": 0
    },
    {
      "sampler": 0,
      "source": 1
    }
  ]
}

